<?xml version="1.0" encoding="UTF-8" standalone="no"?>
<!-- Created with Inkscape (http://www.inkscape.org/) -->

<svg xmlns:dc="http://purl.org/dc/elements/1.1/" xmlns:cc="http://creativecommons.org/ns#" xmlns:rdf="http://www.w3.org/1999/02/22-rdf-syntax-ns#" xmlns:svg="http://www.w3.org/2000/svg" xmlns="http://www.w3.org/2000/svg" xmlns:xlink="http://www.w3.org/1999/xlink" xmlns:sodipodi="http://sodipodi.sourceforge.net/DTD/sodipodi-0.dtd" xmlns:inkscape="http://www.inkscape.org/namespaces/inkscape" width="493.70999" height="370.28" id="svg2" version="1.1" inkscape:version="0.48.2 r9819" sodipodi:docname="vertical-blinds.svg" inkscape:export-filename="C:\Users\pnewell\Pictures\mine\99designs.com\Classic Curtains Co\vertical-blinds.png" inkscape:export-xdpi="109.38" inkscape:export-ydpi="109.38">
  <defs id="defs4">
    <linearGradient id="linearGradient3121">
      <stop style="stop-color:#f6f6f6;stop-opacity:1;" offset="0" id="stop3123" />
      <stop style="stop-color:#ffffff;stop-opacity:1;" offset="1" id="stop3125" />
    </linearGradient>
    <linearGradient inkscape:collect="always" xlink:href="#linearGradient3121" id="linearGradient3127" x1="169.70563" y1="418.38443" x2="169.70563" y2="197.69348" gradientUnits="userSpaceOnUse" />
  </defs>
  <sodipodi:namedview id="base" pagecolor="#ffffff" bordercolor="#666666" borderopacity="1.0" inkscape:pageopacity="0.0" inkscape:pageshadow="2" inkscape:zoom="1" inkscape:cx="202.15466" inkscape:cy="35.711067" inkscape:document-units="px" inkscape:current-layer="layer1" showgrid="false" fit-margin-top="0" fit-margin-left="0" fit-margin-right="0" fit-margin-bottom="0" inkscape:window-width="1406" inkscape:window-height="900" inkscape:window-x="1592" inkscape:window-y="33" inkscape:window-maximized="0" borderlayer="true" />
  <metadata id="metadata7">
    <rdf:RDF>
      <cc:Work rdf:about="">
        <dc:format>image/svg+xml</dc:format>
        <dc:type rdf:resource="http://purl.org/dc/dcmitype/StillImage" />
        <dc:title></dc:title>
      </cc:Work>
    </rdf:RDF>
  </metadata>
  <g inkscape:label="Layer 1" inkscape:groupmode="layer" id="layer1" transform="translate(-430.32498,-443.98424)">
    <rect style="color:#000000;fill:url(#linearGradient3127);fill-opacity:1;fill-rule:nonzero;stroke:none;stroke-width:2.5;marker:none;visibility:visible;display:inline;overflow:visible;enable-background:accumulate" id="rect3119" width="826.30481" height="632.35547" x="-191.92899" y="-181.52942" transform="translate(430.32498,442.23005)" />
    <path style="color:#000000;fill:#ffffff;fill-opacity:1;fill-rule:nonzero;stroke:none;stroke-width:2.5;marker:none;visibility:visible;display:inline;overflow:visible;enable-background:accumulate" d="M -31.428572,-33.571429 527.47205,-36.049669 493.71875,260.3125 428.00893,292.63839 423.1875,260.3125 356.40625,293.35268 352.65625,260.3125 286.05357,292.81696 282.125,260.3125 216.05804,292.81696 211.59375,260.3125 145.88393,292.63839 141.0625,260.3125 74.28125,292.28125 70.53125,260.3125 4.4642857,292.45982 z" transform="translate(430.32498,442.23005)" id="rect3088" inkscape:connector-curvature="0" sodipodi:nodetypes="ccccccccccccccccc" />
    <path style="fill:#4d4d4d;stroke:none" d="M 430.32498,442.23005 430.32498,743.2555 500.85435,702.53536 437.12121,728.40779 z" id="path2985" inkscape:connector-curvature="0" sodipodi:nodetypes="ccccc" />
    <use x="0" y="0" xlink:href="#path2985" id="use2987" transform="translate(70.52937,0)" width="744.09448" height="1052.3622" />
    <use x="0" y="0" xlink:href="#path2985" id="use2989" transform="translate(141.05874,0)" width="744.09448" height="1052.3622" />
    <use x="0" y="0" xlink:href="#path2985" id="use2991" transform="translate(211.58811,0)" width="744.09448" height="1052.3622" />
    <use x="0" y="0" xlink:href="#path2985" id="use2993" transform="translate(282.11748,0)" width="744.09448" height="1052.3622" />
    <use x="0" y="0" xlink:href="#path2985" id="use2995" transform="translate(352.64685,0)" width="744.09448" height="1052.3622" />
    <use x="0" y="0" xlink:href="#path2985" id="use2997" transform="translate(423.17622,0)" width="744.09448" height="1052.3622" />
    <g id="g3129">
      <path d="M 486.83131,687.49266 C 484.70672,690.41264 481.97406,692.74663 478.63332,694.49463 475.29251,696.24264 471.67462,697.11664 467.77964,697.11664 463.48819,697.11664 459.56111,696.06591 455.9984,693.96445 452.43567,691.863 449.60326,689.02001 447.50117,685.43547 445.39907,681.85095 444.34802,677.91232 444.34802,673.61959 444.34802,670.47769 444.94555,667.46856 446.14061,664.59218 447.33567,661.71586 449.0285,659.18238 451.21913,656.99172 453.40974,654.80114 455.932,653.11953 458.78591,651.94688 461.63979,650.77432 464.6377,650.18801 467.77964,650.18797 471.67462,650.18801 475.28161,651.03989 478.6006,652.74358 481.91953,654.44737 484.64064,656.80413 486.76395,659.81387 L 483.84462,661.87106 C 482.7374,660.32259 481.32104,658.91745 479.59552,657.65564 477.86993,656.39391 476.0225,655.44229 474.05322,654.80078 472.08388,654.15935 469.99269,653.83862 467.77964,653.83857 464.23999,653.83862 460.94348,654.71262 457.8901,656.46058 454.83669,658.20863 452.42476,660.63146 450.65432,663.72908 448.88385,666.82677 447.99862,670.1236 447.99863,673.61959 447.99862,677.20414 448.88385,680.52311 450.65432,683.57649 452.42476,686.62989 454.83669,689.0415 457.8901,690.81131 460.94348,692.58113 464.23999,693.46603 467.77964,693.46603 471.05496,693.46603 474.09745,692.73604 476.90712,691.27605 479.71672,689.81607 482.02922,687.84676 483.84462,685.36811 z" style="font-size:63.05907822px;font-style:normal;font-variant:normal;font-weight:normal;font-stretch:normal;text-align:start;line-height:125%;letter-spacing:0px;word-spacing:0px;writing-mode:lr-tb;text-anchor:start;fill:#4d4d4d;fill-opacity:1;stroke:none;font-family:Bellerose;-inkscape-font-specification:Bellerose" id="path3000" inkscape:connector-curvature="0" />
      <path d="M 544.15056,696.2545 528.08751,696.2545 528.08751,651.11746 531.73811,651.11746 531.73811,692.6039 544.15056,692.6039 z" style="font-size:63.05907822px;font-style:normal;font-variant:normal;font-weight:normal;font-stretch:normal;text-align:start;line-height:125%;letter-spacing:0px;word-spacing:0px;writing-mode:lr-tb;text-anchor:start;fill:#4d4d4d;fill-opacity:1;stroke:none;font-family:Bellerose;-inkscape-font-specification:Bellerose" id="path3002" inkscape:connector-curvature="0" />
      <path d="M 600.90597,679.85853 617.10373,679.85853 617.10373,661.93649 C 617.1037,660.3444 616.71625,658.92868 615.94138,657.68932 615.16646,656.45004 614.15968,655.49842 612.92102,654.83446 611.68232,654.17058 610.37725,653.83862 609.00581,653.83857 606.61568,653.83862 604.66818,654.65745 603.1633,656.29508 601.6584,657.9328 600.90596,659.81326 600.90597,661.93649 z M 600.90597,683.50913 600.90597,696.2545 597.25536,696.2545 597.25536,683.50913 592.54248,683.50913 594.73438,679.85853 597.25536,679.85853 597.25536,661.93649 C 597.25535,659.85688 597.78649,657.91002 598.84877,656.09591 599.91104,654.28187 601.34921,652.8437 603.1633,651.78138 604.97736,650.71915 606.92486,650.18801 609.00581,650.18797 611.08544,650.18801 613.0323,650.71915 614.84639,651.78138 616.66045,652.8437 618.09862,654.28187 619.16092,656.09591 620.22317,657.91002 620.75431,659.85688 620.75433,661.93649 L 620.75433,696.2545 617.10373,696.2545 617.10373,683.50913 z" style="font-size:63.05907822px;font-style:normal;font-variant:normal;font-weight:normal;font-stretch:normal;text-align:start;line-height:125%;letter-spacing:0px;word-spacing:0px;writing-mode:lr-tb;text-anchor:start;fill:#4d4d4d;fill-opacity:1;stroke:none;font-family:Bellerose;-inkscape-font-specification:Bellerose" id="path3004" inkscape:connector-curvature="0" />
      <path d="M 667.55187,685.76647 C 668.083,688.02317 669.2338,689.83756 671.00427,691.20966 672.77472,692.58177 674.76584,693.26782 676.97763,693.26782 679.72182,693.26782 682.0122,692.32743 683.84874,690.44663 685.68524,688.56585 686.60352,686.29761 686.60353,683.64192 686.60352,681.29672 685.9396,679.29437 684.61177,677.63487 683.2839,675.97541 681.58016,674.8801 679.50054,674.34894 L 674.32388,673.02302 C 671.8016,672.35848 669.75499,670.99728 668.18404,668.93942 666.61307,666.88162 665.82759,664.54731 665.82761,661.93649 665.82759,658.75099 666.94471,656.04078 669.17897,653.80586 671.41319,651.57102 674.12373,650.45358 677.31056,650.45354 679.34657,650.45358 681.2604,650.97349 683.05204,652.01327 684.84365,653.05314 686.24878,654.43582 687.26746,656.16134 L 684.08064,657.95489 C 682.62063,655.38777 680.36393,654.10418 677.31056,654.10414 675.14238,654.10418 673.29494,654.88966 671.76825,656.46058 670.24154,658.03158 669.4782,659.85688 669.4782,661.93649 669.4782,663.75189 670.03115,665.36743 671.13705,666.78312 672.24293,668.19887 673.61504,669.10559 675.25337,669.50327 L 680.43002,670.83112 C 683.30636,671.58423 685.66279,673.15551 687.49935,675.54496 689.33586,677.93446 690.25411,680.63344 690.25414,683.64192 690.25411,687.35989 688.94872,690.50213 686.33797,693.06864 683.72717,695.63516 680.60706,696.91842 676.97763,696.91842 673.92422,696.91842 671.2028,695.96712 668.81332,694.06452 666.42385,692.16193 664.8532,689.72819 664.1014,686.76331 z" style="font-size:63.05907822px;font-style:normal;font-variant:normal;font-weight:normal;font-stretch:normal;text-align:start;line-height:125%;letter-spacing:0px;word-spacing:0px;writing-mode:lr-tb;text-anchor:start;fill:#4d4d4d;fill-opacity:1;stroke:none;font-family:Bellerose;-inkscape-font-specification:Bellerose" id="path3006" inkscape:connector-curvature="0" />
      <path d="M 738.08124,685.76647 C 738.61237,688.02317 739.76317,689.83756 741.53363,691.20966 743.30408,692.58177 745.2952,693.26782 747.507,693.26782 750.2512,693.26782 752.54156,692.32743 754.37811,690.44663 756.21462,688.56585 757.13288,686.29761 757.13291,683.64192 757.13288,681.29672 756.46896,679.29437 755.14114,677.63487 753.81328,675.97541 752.10953,674.8801 750.02991,674.34894 L 744.85324,673.02302 C 742.33097,672.35848 740.28437,670.99728 738.71341,668.93942 737.14245,666.88162 736.35697,664.54731 736.35697,661.93649 736.35697,658.75099 737.47409,656.04078 739.70833,653.80586 741.94256,651.57102 744.65309,650.45358 747.83993,650.45354 749.87594,650.45358 751.78976,650.97349 753.58141,652.01327 755.37301,653.05314 756.77815,654.43582 757.79683,656.16134 L 754.61,657.95489 C 753.15,655.38777 750.89331,654.10418 747.83993,654.10414 745.67175,654.10418 743.82431,654.88966 742.29763,656.46058 740.77092,658.03158 740.00757,659.85688 740.00758,661.93649 740.00757,663.75189 740.56052,665.36743 741.66642,666.78312 742.7723,668.19887 744.14441,669.10559 745.78273,669.50327 L 750.9594,670.83112 C 753.83573,671.58423 756.19217,673.15551 758.02872,675.54496 759.86522,677.93446 760.78348,680.63344 760.78351,683.64192 760.78348,687.35989 759.47809,690.50213 756.86734,693.06864 754.25653,695.63516 751.13642,696.91842 747.507,696.91842 744.4536,696.91842 741.73216,695.96712 739.34269,694.06452 736.95321,692.16193 735.38258,689.72819 734.63077,686.76331 z" style="font-size:63.05907822px;font-style:normal;font-variant:normal;font-weight:normal;font-stretch:normal;text-align:start;line-height:125%;letter-spacing:0px;word-spacing:0px;writing-mode:lr-tb;text-anchor:start;fill:#4d4d4d;fill-opacity:1;stroke:none;font-family:Bellerose;-inkscape-font-specification:Bellerose" id="path3008" inkscape:connector-curvature="0" />
      <path d="M 816.41121,696.2545 816.41121,651.11746 820.06182,651.11746 820.06182,696.2545 z" style="font-size:63.05907822px;font-style:normal;font-variant:normal;font-weight:normal;font-stretch:normal;text-align:start;line-height:125%;letter-spacing:0px;word-spacing:0px;writing-mode:lr-tb;text-anchor:start;fill:#4d4d4d;fill-opacity:1;stroke:none;font-family:Bellerose;-inkscape-font-specification:Bellerose" id="path3010" inkscape:connector-curvature="0" />
      <path d="M 910.00752,687.49266 C 907.88294,690.41264 905.15027,692.74663 901.80954,694.49463 898.46872,696.24264 894.85085,697.11664 890.95587,697.11664 886.6644,697.11664 882.73734,696.06591 879.17463,693.96445 875.61189,691.863 872.77949,689.02001 870.67738,685.43547 868.57529,681.85095 867.52425,677.91232 867.52425,673.61959 867.52425,670.47769 868.12178,667.46856 869.31684,664.59218 870.51189,661.71586 872.20473,659.18238 874.39536,656.99172 876.58596,654.80114 879.10821,653.11953 881.96213,651.94688 884.81602,650.77432 887.81393,650.18801 890.95587,650.18797 894.85085,650.18801 898.45782,651.03989 901.77683,652.74358 905.09576,654.44737 907.81686,656.80413 909.94017,659.81387 L 907.02084,661.87106 C 905.91363,660.32259 904.49725,658.91745 902.77174,657.65564 901.04615,656.39391 899.19872,655.44229 897.22945,654.80078 895.2601,654.15935 893.1689,653.83862 890.95587,653.83857 887.41621,653.83862 884.1197,654.71262 881.06632,656.46058 878.01291,658.20863 875.60099,660.63146 873.83054,663.72908 872.06008,666.82677 871.17484,670.1236 871.17484,673.61959 871.17484,677.20414 872.06008,680.52311 873.83054,683.57649 875.60099,686.62989 878.01291,689.0415 881.06632,690.81131 884.1197,692.58113 887.41621,693.46603 890.95587,693.46603 894.23119,693.46603 897.27368,692.73604 900.08334,691.27605 902.89295,689.81607 905.20545,687.84676 907.02084,685.36811 z" style="font-size:63.05907822px;font-style:normal;font-variant:normal;font-weight:normal;font-stretch:normal;text-align:start;line-height:125%;letter-spacing:0px;word-spacing:0px;writing-mode:lr-tb;text-anchor:start;fill:#4d4d4d;fill-opacity:1;stroke:none;font-family:Bellerose;-inkscape-font-specification:Bellerose" id="path3012" inkscape:connector-curvature="0" />
    </g>
    <text xml:space="preserve" style="font-size:114.47338867px;font-style:normal;font-variant:normal;font-weight:normal;font-stretch:normal;line-height:125%;letter-spacing:4.5px;word-spacing:0px;fill:#ffffff;stroke:#4d4d4d;stroke-opacity:1;font-family:Bellerose;-inkscape-font-specification:Bellerose" x="442.05414" y="812.31793" id="text3037" sodipodi:linespacing="125%"><tspan sodipodi:role="line" id="tspan3039" x="442.05414" y="812.31793">curtains.co</tspan></text>
  </g>
</svg>
